<svg xmlns="http://www.w3.org/2000/svg" width="80" height="80" viewBox="0 0 80 80" fill="currentColor">
    <path d="M69.313 28.377l6.048-14.985c-.069-.068-.757-1.145-1.328-1.348L59.02 22.074c-7.18-3.45-15.728-7.402-17.997-8.206-.047-.02-.1-.02-.147 0-.031-.011-.063-.021-.096-.03L34.265.853c-.42-.7-1.155-.941-2.205-.721L4.23 16.552c-.872.403-1.088 1.333-.647 2.793l8.175 11.966c-.444 3.414 0 32.079.106 35.16 0 .162.09.824 1.529 1.63 3.476 1.766 11.18 5.162 15.81 7.02 5.023 2.015 7.153 2.886 8.412 3.484.023.045.057.083.1.111.711.464 1.637.464 2.349 0 6.925-3.702 26.365-16.142 28.645-17.796.415-.294 1.118-.694.92-2.174.102-2.375-.163-24.936-.316-30.369zm-20.969.833c-1.095.804-2.026 1.802-2.746 2.943l-4.774 11.086c-.144-.047-1.421-.433-1.451-.483-1.052-.497-1.337-.818-5.52-2.495-3.857-1.548-12.465-5.153-15.361-6.634-1.202-.674 1.201-2.13 1.267-2.2 1.677-1.11 19.788-11.773 20.314-12.105.247-.157.554-.19.83-.089.038-.015.08-.015.12 0 1.946.689 8.199 3.532 13.327 5.969l-6.006 4.008z" />
</svg>
