<svg width="24" height="24" viewBox="0 0 24 24" fill="currentColor" xmlns="http://www.w3.org/2000/svg">
  <path d="M15 18V16.5142H11.3254C11.5742 16.3349 11.6986 15.9764 11.6986 15.4387V14.4198H13.7368V13.033H11.6986V10.8396C11.6986 10.6038 11.8278 10.4858 12.0861 10.4858H12.5024C12.7608 10.4858 12.89 10.6038 12.89 10.8396V11.8726H14.9426V10.5566C14.9426 9.51887 14.3349 9 13.1196 9H11.4689C10.2536 9 9.64593 9.51887 9.64593 10.5566V13.033H9V14.4198H9.64593V15.3679C9.64593 15.8019 9.60287 16.1085 9.51675 16.2877C9.44019 16.467 9.26794 16.5708 9 16.5991V18H15Z" />
  <path fill-rule="evenodd" clip-rule="evenodd" d="M6 2H14L20 8V20C20 21.1 19.1 22 18 22H6C4.9 22 4 21.1 4 20V4C4 2.9 4.9 2 6 2ZM18 8.83L13.17 4H6V20H18V8.83Z" />
</svg>
