<svg xmlns="http://www.w3.org/2000/svg" width="80" height="80" viewBox="0 0 80 80" fill="#2FCFA0">
    <path d="M78.946 26.666C73.683 10.053 58.417 0 42.096 0c-4.724 0-8.947.501-13.158 2.005C11.566 8.043 0 26.66 0 44.776c0 5.03.526 10.065 2.631 15.097C6.316 68.93 30.004 80 44.217 80c1.968-.044 3.917-.384 5.778-1.008C65.787 73.962 80 51.822 80 34.712c.003-3.014.003-5.529-1.054-8.046zm-19.972-3.972c-.18.73-.413 1.449-.697 2.15-.295.67-.636 1.322-1.02 1.95v.016c-.104.179-.198.345-.268.483l-.171.312c-.188.343-.298.541-.403.692-.243.45-.524.881-.84 1.29-.233.347-.847 1.077-1.82 2.23-.645.755-1.374 1.626-1.61 1.955-.43.68-.915 1.448-1.468 2.266l-.016.022-.016.023c-.268.355-1.341 1.68-2.561 3.215l-.017.017c-1.609 2.014-3.61 4.506-3.9 4.906-.74.987-1.491 1.936-2.229 2.827-.625.866-1.223 1.651-1.733 2.265l-2.77 3.449c-.07.096-.162.206-.269.345-.107.138-.268.34-.435.554-.368.485-.767.95-1.193 1.392-.177.251-.37.49-.537.697-.152.176-.295.36-.426.551v.02l-.014.02c-.262.34-.558.656-.882.944l-.091.09-.062.069-.185.196-.065.023-.04.04c-.63.63-1.255 1.21-1.969 1.442l-.11.036-.33.108-.335-.096-.58-.166h-.241c-.557-.032-1.094-.206-1.553-.503-.19-.078-.36-.196-.493-.345-.197-.154-.381-.323-.55-.504-.204-.153-.394-.321-.569-.503l-.083.055-.63-.77-2.533-3.099c-5.365-6.56-6.188-8.153-5.995-9.243.063-.364.261-.696.56-.936 1.143-1.022 1.878-1.636 2.364-1.991.313-.24.664-.432 1.04-.569l.068-.025.08-.03.083-.018 1.647-.347.143-.03h.147c.5.038.983.188 1.408.437 1.521.783 2.71 2.19 4.51 4.315.308.365.66.778 1.043 1.226l2.331-3.15 6.352-8.054 8.43-11.121.033-.043.035-.038.142-.153.019-.02.019-.018c.055-.065.107-.133.155-.204.134-.19.279-.374.435-.549.247-.302.515-.584.754-.835l.214-.227c.392-.392.695-.667 1.073-.984l.038-.033.04-.027.051-.038.038-.028.04-.025c.635-.378 2.634-.853 3.369-.853.075 0 .15.003.225.012l3.165.39c.547.06 1.04.334 1.358.756.384.425.475 1.047.295 1.79h.005z" />
</svg>
