<svg xmlns="http://www.w3.org/2000/svg" width="80" height="80" viewBox="0 0 80 80" fill="#FF9C54">
    <path fill-rule="nonzero" d="M76.705 20.218c-.78-1.765-1.828-3.398-3.108-4.84C62.995 3.048 37.051-1.243 21.112 5.362c-2.813 1.155-5.152 2.137-7.105 4.06C.511 20.591-3.143 38.27 2.97 53.012c1.773 4.278 3.818 7.905 6.801 11.114 12.13 13.363 33.808 16.638 50.683 9.643 4.685-1.944 9.179-4.364 13.078-8.205 7.047-6.83 8.49-32.506 3.174-45.346zm-41.733 2.62c0-2.834.153-6.66 2.22-7.12.92-.228 1.838-.537 2.756-.612.585-.063 1.173-.088 1.762-.075.69 0 2.068.534 2.068 1.378 0 7.425.228 12.86.228 18.983.004 3.327-.2 6.651-.612 9.952-.076.766-.385.919-.766.919-.228 0-.459-.075-.612-.075-.306 0-.46.306-.765.306-.154 0-.307-.228-.844-.228-.765 0-.69.228-.996.228-.46 0-.384-.384-.919-.384-.228 0-.228.153-.459.153h-.153c-.316.067-.644-.051-.843-.306-.153-.231-.612.075-.843.075-.385 0-.613-.384-.766-.69-.384-.997-.459-2.45-.459-4.044l.003-18.46zm8.88 37.279c-.21.225-.441.43-.69.612-.653.375-1.398.56-2.151.535-1.744-.046-3.43-.634-4.823-1.684-.384-.306-.69-.537-.766-.844-.526-.936-.815-1.987-.843-3.06-.012-1.226.455-2.408 1.303-3.293.459-.46.69-.997 1.224-1.225.82-.36 1.705-.543 2.6-.537 1.596-.037 3.14.57 4.285 1.684.509.452.925.998 1.225 1.608.17.413.248.857.228 1.303.014 1.609-.598 3.905-1.591 4.901z" />
</svg>
