<svg width="24" height="24" viewBox="0 0 24 24" xmlns="http://www.w3.org/2000/svg" xmlns:xlink="http://www.w3.org/1999/xlink">
    <defs>
        <path d="M15.5 14h-.79l-.28-.27A6.471 6.471 0 0 0 16 9.5 6.5 6.5 0 1 0 9.5 16c1.61 0 3.09-.59 4.23-1.57l.27.28v.79l5 4.99L20.49 19l-4.99-5zm-6-9C11.99 5 14 7.01 14 9.5S11.99 14 9.5 14 5 11.99 5 9.5 7.01 5 9.5 5zm.5 2H9v2H7v1h2v2h1v-2h2V9h-2V7z" id="9k8gs3uj6a"/>
        <path id="4c6mx5tgdc" d="M0 0h50v50H0z"/>
    </defs>
    <g fill="none" fill-rule="evenodd">
        <mask id="95mlp3hknb" fill="#fff">
            <use xlink:href="#9k8gs3uj6a"/>
        </mask>
        <g mask="url(#95mlp3hknb)">
            <use fill="currentColor" xlink:href="#4c6mx5tgdc" transform="translate(-13 -13)"/>
        </g>
    </g>
</svg>
